# xmcd
#
# Track frame offsets:
#	150
#	14787
#	26593
#	41507
#	57008
#	71092
#	90853
#	105357
#	120206
#	130640
#	148938
#	158368
#	172903
#	189759
#	209861
#	224293
#	236508
#	252013
#	270437
#
# Disc length: 3797 seconds
#
# Revision: 1
# Processed by: cddbd v1.5.2PL0 Copyright (c) Steve Scherf et al.
# Submitted via: audiograbber 1.83.01
#
DISCID=f50ed313
DTITLE=Heavy Hitters - Country Instrumentals (Heavy Hitters)
DYEAR=1998
DGENRE=Country
TTITLE0=Ropin And A Ridin (midtempo)
TTITLE1=Stomp'd Dog (mid-uptempo, corny)
TTITLE2=You Got It (mid-uptempo)
TTITLE3=Nothin But A Party (uptempo rockin country)
TTITLE4=Never Had Her Doubts (slow)
TTITLE5=I Wanna Be There (mid-uptempo)
TTITLE6=Her Memory Intrudes (slow, 6/8)
TTITLE7=Sky High (midtempo Southern Country)
TTITLE8=Legs (rockin 6/8)
TTITLE9=Loving You (slow 6/8)
TTITLE10=Yippe Ky-Yo (midtempo)
TTITLE11=You Cant't Fire Me (midtempo)
TTITLE12=Little Bit Of Kick (mid-uptempo)
TTITLE13=Shakin The Tree (slow, moody)
TTITLE14=Shakedown (midtempo, cheerful)
TTITLE15=Shake It (slow-midtempo)
TTITLE16=On The Way (midtempo, regal)
TTITLE17=I Might Be Lovin You (midtempo)
TTITLE18=Good Time (cheerful mid-uptempo)
EXTD=All song licensed by Barbara L. Jordan
EXTT0=
EXTT1=
EXTT2=
EXTT3=
EXTT4=
EXTT5=
EXTT6=
EXTT7=
EXTT8=
EXTT9=
EXTT10=
EXTT11=
EXTT12=
EXTT13=
EXTT14=
EXTT15=
EXTT16=
EXTT17=
EXTT18=
PLAYORDER=
